<svg width="44" height="44" viewBox="0 0 44 44" fill="none" xmlns="http://www.w3.org/2000/svg">
<circle cx="14.6667" cy="14.6667" r="14.9667" transform="matrix(-1 0 0 1 36.6665 3.6665)" fill="#F5F5DC" stroke="black" stroke-width="0.6"/>
<path d="M34.9635 34.9635C37.5274 32.3995 39.2735 29.1328 39.9809 25.5765C40.6883 22.0202 40.3252 18.334 38.9376 14.984C37.55 11.634 35.2002 8.77072 32.1853 6.75623C29.1704 4.74173 25.6258 3.6665 21.9998 3.6665C18.3738 3.6665 14.8293 4.74173 11.8144 6.75623C8.79948 8.77072 6.44965 11.634 5.06205 14.984C3.67444 18.334 3.31138 22.0202 4.01877 25.5765C4.72617 29.1328 6.47225 32.3995 9.03621 34.9635" stroke="black" stroke-width="1.2"/>
<path d="M22.0002 16.5L21.6253 16.0315L22.0002 15.7316L22.375 16.0315L22.0002 16.5ZM22.6002 38.5C22.6002 38.8314 22.3315 39.1 22.0002 39.1C21.6688 39.1 21.4002 38.8314 21.4002 38.5L22.6002 38.5ZM12.8335 23.8333L12.4587 23.3648L21.6253 16.0315L22.0002 16.5L22.375 16.9685L13.2083 24.3019L12.8335 23.8333ZM22.0002 16.5L22.375 16.0315L31.5416 23.3648L31.1668 23.8333L30.792 24.3019L21.6253 16.9685L22.0002 16.5ZM22.0002 16.5L22.6002 16.5L22.6002 38.5L22.0002 38.5L21.4002 38.5L21.4002 16.5L22.0002 16.5Z" fill="black"/>
</svg>
