<svg width="22" height="22" viewBox="0 0 22 22" fill="none" xmlns="http://www.w3.org/2000/svg">
<path d="M15.7451 7.94143C17.1598 8.95634 18.893 9.55349 20.7648 9.55349V5.93864C20.4106 5.93872 20.0572 5.90165 19.7106 5.82796V8.67336C17.8389 8.67336 16.106 8.0762 14.6909 7.06137V14.4382C14.6909 18.1285 11.71 21.1198 8.03308 21.1198C6.66112 21.1198 5.38595 20.7036 4.32666 19.9897C5.53566 21.2303 7.22171 21.9999 9.08702 21.9999C12.7642 21.9999 15.7453 19.0086 15.7453 15.3181V7.94143H15.7451ZM17.0456 4.2945C16.3225 3.50179 15.8478 2.47737 15.7451 1.34483V0.879883H14.7461C14.9976 2.31934 15.8553 3.54913 17.0456 4.2945ZM6.65232 17.1579C6.24837 16.6264 6.03008 15.9761 6.03105 15.3076C6.03105 13.6198 7.39451 12.2513 9.07665 12.2513C9.39014 12.2512 9.70175 12.2994 10.0005 12.3945V8.69887C9.65137 8.65086 9.299 8.63047 8.94678 8.63794V11.5144C8.6478 11.4193 8.33604 11.371 8.02247 11.3713C6.34034 11.3713 4.97696 12.7396 4.97696 14.4276C4.97696 15.6212 5.65846 16.6545 6.65232 17.1579Z" fill="#FF004F"/>
<path d="M14.691 7.0613C16.1062 8.07613 17.8391 8.67328 19.7108 8.67328V5.82788C18.666 5.60455 17.7411 5.05662 17.0457 4.2945C15.8553 3.54906 14.9977 2.31927 14.7462 0.879883H12.1222V15.318C12.1163 17.0012 10.7551 18.3641 9.07661 18.3641C8.08748 18.3641 7.20874 17.8909 6.65221 17.1579C5.65842 16.6545 4.97692 15.6211 4.97692 14.4277C4.97692 12.7399 6.3403 11.3714 8.02243 11.3714C8.34472 11.3714 8.65536 11.4217 8.94674 11.5145V8.63802C5.3344 8.71292 2.4292 11.675 2.4292 15.3181C2.4292 17.1366 3.15266 18.7852 4.32685 19.9898C5.38613 20.7036 6.66131 21.1199 8.03326 21.1199C11.7103 21.1199 14.6911 18.1284 14.6911 14.4382V7.0613H14.691Z" fill="white"/>
<path d="M19.7107 5.82798V5.05861C18.7685 5.06005 17.8449 4.79526 17.0456 4.29452C17.7532 5.07197 18.6849 5.60804 19.7107 5.82798ZM14.7461 0.879985C14.7222 0.742419 14.7037 0.603947 14.6909 0.464946V0H11.0679V14.4382C11.0621 16.1212 9.70101 17.4841 8.02233 17.4841C7.5295 17.4841 7.06419 17.3667 6.65211 17.1581C7.20864 17.891 8.08738 18.3641 9.07651 18.3641C10.7549 18.3641 12.1162 17.0013 12.1221 15.3182V0.879985H14.7461ZM8.94679 8.63812V7.81907C8.64405 7.77754 8.33883 7.7567 8.03324 7.75685C4.35592 7.75678 1.375 10.7483 1.375 14.4382C1.375 16.7516 2.54656 18.7905 4.32682 19.9897C3.15264 18.7852 2.42917 17.1366 2.42917 15.3181C2.42917 11.6751 5.3343 8.71302 8.94679 8.63812Z" fill="#00F2EA"/>
</svg>
