<svg width="36" height="12" viewBox="0 0 36 12" fill="none" xmlns="http://www.w3.org/2000/svg">
<path d="M16.622 7.98883H11.459V9.40852H16.622V7.98883Z" fill="black"/>
<path d="M16.622 5.28748H11.459V6.70717H16.622V5.28748Z" fill="black"/>
<path d="M16.622 2.5827H11.459V4.00162H16.622V2.5827Z" fill="black"/>
<path d="M27.2846 2.49243H26.0469V9.49654H27.2846V2.49243Z" fill="black"/>
<path d="M27.2846 0.0391235H26.0469V1.45804H27.2846V0.0391235Z" fill="black"/>
<path d="M5.47758 2.40356H0V3.82259H2.11954V9.40768H3.35728V3.82259H5.47681V2.40356H5.47758Z" fill="black"/>
<path d="M32.9433 5.99595L35.9997 2.4939H34.2484L32.0676 4.99261L29.8876 2.4939H28.1362L31.1927 5.99595L28.1362 9.49878H29.8876L32.0676 6.99929L34.2484 9.49878H35.9997L32.9433 5.99672V5.99595Z" fill="black"/>
<path d="M18.4668 2.40356V9.40768H19.7045V3.82259H20.3238C22.03 3.82259 23.4193 5.41359 23.4193 7.36937V9.40768H24.657V7.36937C24.657 4.63158 22.7128 2.40356 20.3238 2.40356H18.4668Z" fill="black"/>
<path d="M8.99167 6.65463C9.66374 8.89654 8.93809 11.0875 7.80369 11.9999H6.40674C7.67739 10.395 8.14279 8.98445 7.64218 7.31556L7.63759 7.30476L7.24644 5.98831L7.21506 5.8842L7.05508 5.34512C6.38454 3.10785 7.10483 0.9207 8.23694 0.00527639C8.23923 0.00296276 8.24076 0.00142035 8.24306 -0.00012207H9.64001C8.36936 1.60476 7.90396 3.01607 8.4038 4.68497L8.98708 6.64461L8.99167 6.65463Z" fill="black"/>
</svg>
