<svg width="36" height="12" viewBox="0 0 36 12" fill="none" xmlns="http://www.w3.org/2000/svg">
<path d="M16.622 7.98877H11.459V9.40846H16.622V7.98877Z" fill="white"/>
<path d="M16.622 5.2876H11.459V6.70729H16.622V5.2876Z" fill="white"/>
<path d="M16.622 2.58301H11.459V4.00193H16.622V2.58301Z" fill="white"/>
<path d="M27.2846 2.49268H26.0469V9.49679H27.2846V2.49268Z" fill="white"/>
<path d="M27.2846 0.0390625H26.0469V1.45798H27.2846V0.0390625Z" fill="white"/>
<path d="M5.47758 2.40381H0V3.82283H2.11954V9.40792H3.35728V3.82283H5.47681V2.40381H5.47758Z" fill="white"/>
<path d="M32.9433 5.9962L35.9997 2.49414H34.2484L32.0676 4.99286L29.8876 2.49414H28.1362L31.1927 5.9962L28.1362 9.49902H29.8876L32.0676 6.99954L34.2484 9.49902H35.9997L32.9433 5.99697V5.9962Z" fill="white"/>
<path d="M18.4668 2.40381V9.40792H19.7045V3.82283H20.3238C22.03 3.82283 23.4193 5.41383 23.4193 7.36962V9.40792H24.657V7.36962C24.657 4.63183 22.7128 2.40381 20.3238 2.40381H18.4668Z" fill="white"/>
<path d="M8.99167 6.65476C9.66374 8.89666 8.93809 11.0877 7.80369 12H6.40674C7.67739 10.3951 8.14279 8.98458 7.64218 7.31568L7.63759 7.30488L7.24644 5.98843L7.21506 5.88432L7.05508 5.34524C6.38454 3.10797 7.10483 0.920823 8.23694 0.00539846C8.23923 0.00308483 8.24076 0.00154242 8.24306 0H9.64001C8.36936 1.60488 7.90396 3.0162 8.4038 4.68509L8.98708 6.64473L8.99167 6.65476Z" fill="white"/>
</svg>
